<?xml version="1.0" encoding="UTF-8" standalone="no"?>
<svg
   width="943.41223pt"
   height="543.47913pt"
   viewBox="0 0 943.41223 543.47913"
   version="1.1"
   id="svg515"
   sodipodi:docname="graph_plot.svg"
   inkscape:version="1.2.1 (9c6d41e, 2022-07-14)"
   xmlns:inkscape="http://www.inkscape.org/namespaces/inkscape"
   xmlns:sodipodi="http://sodipodi.sourceforge.net/DTD/sodipodi-0.dtd"
   xmlns:xlink="http://www.w3.org/1999/xlink"
   xmlns="http://www.w3.org/2000/svg"
   xmlns:svg="http://www.w3.org/2000/svg"
   xmlns:rdf="http://www.w3.org/1999/02/22-rdf-syntax-ns#"
   xmlns:cc="http://creativecommons.org/ns#"
   xmlns:dc="http://purl.org/dc/elements/1.1/">
  <sodipodi:namedview
     id="namedview517"
     pagecolor="#ffffff"
     bordercolor="#999999"
     borderopacity="1"
     inkscape:showpageshadow="0"
     inkscape:pageopacity="0"
     inkscape:pagecheckerboard="0"
     inkscape:deskcolor="#d1d1d1"
     inkscape:document-units="pt"
     showgrid="false"
     inkscape:zoom="0.57655246"
     inkscape:cx="666.02786"
     inkscape:cy="334.74838"
     inkscape:window-width="1280"
     inkscape:window-height="772"
     inkscape:window-x="1280"
     inkscape:window-y="0"
     inkscape:window-maximized="0"
     inkscape:current-layer="svg515" />
  <metadata
     id="metadata2">
    <rdf:RDF>
      <cc:Work>
        <dc:type
           rdf:resource="http://purl.org/dc/dcmitype/StillImage" />
        <dc:date>2022-09-04T18:32:28.332967</dc:date>
        <dc:format>image/svg+xml</dc:format>
        <dc:creator>
          <cc:Agent>
            <dc:title>Matplotlib v3.5.3, https://matplotlib.org/</dc:title>
          </cc:Agent>
        </dc:creator>
      </cc:Work>
    </rdf:RDF>
  </metadata>
  <defs
     id="defs6">
    <style
       type="text/css"
       id="style4">*{stroke-linejoin: round; stroke-linecap: butt}</style>
  </defs>
  <g
     id="figure_1"
     transform="translate(-48.130919,-5.2033426)">
    <g
       id="patch_1"
       transform="matrix(0.86028061,0,0,0.94354012,48.130919,5.2033426)">
      <path
         d="M 0,0 H 1080 V 576 H 0 Z"
         style="fill:#ffffff"
         id="path8"
         sodipodi:nodetypes="ccccc" />
    </g>
    <g
       id="axes_1"
       transform="translate(6.5041783,-52.033426)">
      <g
         id="patch_2">
        <path
           d="M 135,512.64 H 972 V 69.12 H 135 Z"
           style="fill:#ffffff"
           id="path11" />
      </g>
      <g
         id="matplotlib.axis_1">
        <g
           id="xtick_1">
          <g
             id="line2d_1">
            <path
               d="M 205.52328,512.64 V 69.12"
               clip-path="url(#pa228791ba9)"
               style="fill:none;stroke:#ffffff;stroke-width:0.8;stroke-linecap:square"
               id="path14" />
          </g>
          <g
             id="text_1">
            <!-- 1 -->
            <g
               style="fill:#444444"
               transform="matrix(0.2,0,0,-0.2,199.35141,536.13375)"
               id="g22">
              <defs
                 id="defs18">
                <path
                   id="Futura-Medium-31"
                   d="M 1734,4144 H 900 l 400,681 H 2463 V 0 h -729 z"
                   transform="scale(0.015625)" />
              </defs>
              <use
                 xlink:href="#Futura-Medium-31"
                 id="use20" />
            </g>
          </g>
        </g>
        <g
           id="xtick_2">
          <g
             id="line2d_2">
            <path
               d="M 282.85144,512.64 V 69.12"
               clip-path="url(#pa228791ba9)"
               style="fill:none;stroke:#ffffff;stroke-width:0.8;stroke-linecap:square"
               id="path26" />
          </g>
          <g
             id="text_2">
            <!-- 2 -->
            <g
               style="fill:#444444"
               transform="matrix(0.2,0,0,-0.2,276.67957,536.13375)"
               id="g34">
              <defs
                 id="defs30">
                <path
                   id="Futura-Medium-32"
                   d="M 1603,684 H 3400 V 0 H 159 l 1675,2028 q 247,303 414,525 168,222 255,372 178,294 178,528 0,338 -238,566 -237,228 -587,228 -731,0 -837,-866 H 294 q 175,1525 1540,1525 660,0 1107,-418 450,-419 450,-1038 0,-394 -210,-772 -106,-197 -311,-467 -204,-270 -517,-639 z"
                   transform="scale(0.015625)" />
              </defs>
              <use
                 xlink:href="#Futura-Medium-32"
                 id="use32" />
            </g>
          </g>
        </g>
        <g
           id="xtick_3">
          <g
             id="line2d_3">
            <path
               d="M 360.1796,512.64 V 69.12"
               clip-path="url(#pa228791ba9)"
               style="fill:none;stroke:#ffffff;stroke-width:0.8;stroke-linecap:square"
               id="path38" />
          </g>
          <g
             id="text_3">
            <!-- 3 -->
            <g
               style="fill:#444444"
               transform="matrix(0.2,0,0,-0.2,354.00773,536.13375)"
               id="g46">
              <defs
                 id="defs42">
                <path
                   id="Futura-Medium-33"
                   d="m 1656,2241 v 622 q 463,0 622,103 285,181 285,581 0,309 -207,503 -203,197 -528,197 -303,0 -469,-147 -159,-150 -237,-506 H 397 q 112,681 462,998 350,317 979,317 634,0 1034,-375 400,-371 400,-959 0,-662 -525,-1031 600,-353 600,-1147 Q 3347,747 2909,334 2472,-78 1788,-78 916,-78 494,563 319,831 272,1306 h 703 q 56,-350 273,-536 218,-186 568,-186 353,0 584,235 231,240 231,609 0,488 -347,694 -203,119 -628,119 z"
                   transform="scale(0.015625)" />
              </defs>
              <use
                 xlink:href="#Futura-Medium-33"
                 id="use44" />
            </g>
          </g>
        </g>
        <g
           id="xtick_4">
          <g
             id="line2d_4">
            <path
               d="M 437.50776,512.64 V 69.12"
               clip-path="url(#pa228791ba9)"
               style="fill:none;stroke:#ffffff;stroke-width:0.8;stroke-linecap:square"
               id="path50" />
          </g>
          <g
             id="text_4">
            <!-- 4 -->
            <g
               style="fill:#444444"
               transform="matrix(0.2,0,0,-0.2,431.33589,536.13375)"
               id="g58">
              <defs
                 id="defs54">
                <path
                   id="Futura-Medium-34"
                   d="m 3156,1347 h 513 V 684 H 3156 V 0 H 2428 V 684 H 59 l 3097,4500 z m -728,0 V 2963 L 1316,1347 Z"
                   transform="scale(0.015625)" />
              </defs>
              <use
                 xlink:href="#Futura-Medium-34"
                 id="use56" />
            </g>
          </g>
        </g>
        <g
           id="xtick_5">
          <g
             id="line2d_5">
            <path
               d="M 514.83592,512.64 V 69.12"
               clip-path="url(#pa228791ba9)"
               style="fill:none;stroke:#ffffff;stroke-width:0.8;stroke-linecap:square"
               id="path62" />
          </g>
          <g
             id="text_5">
            <!-- 5 -->
            <g
               style="fill:#444444"
               transform="matrix(0.2,0,0,-0.2,508.66404,536.13375)"
               id="g70">
              <defs
                 id="defs66">
                <path
                   id="Futura-Medium-35"
                   d="M 3366,4144 H 1878 l -237,-800 q 53,6 101,9 49,3 89,3 703,0 1153,-475 454,-472 454,-1209 Q 3438,909 2925,415 2413,-78 1634,-78 675,-78 122,822 l 550,466 q 228,-388 459,-547 232,-157 566,-157 437,0 734,307 297,315 297,765 0,463 -294,757 -293,303 -734,303 -491,0 -847,-428 H 613 l 759,2537 h 1994 z"
                   transform="scale(0.015625)" />
              </defs>
              <use
                 xlink:href="#Futura-Medium-35"
                 id="use68" />
            </g>
          </g>
        </g>
        <g
           id="xtick_6">
          <g
             id="line2d_6">
            <path
               d="M 592.16408,512.64 V 69.12"
               clip-path="url(#pa228791ba9)"
               style="fill:none;stroke:#ffffff;stroke-width:0.8;stroke-linecap:square"
               id="path74" />
          </g>
          <g
             id="text_6">
            <!-- 6 -->
            <g
               style="fill:#444444"
               transform="matrix(0.2,0,0,-0.2,585.99221,536.13375)"
               id="g82">
              <defs
                 id="defs78">
                <path
                   id="Futura-Medium-36"
                   d="M 2513,4994 3047,4594 1894,3025 q 94,13 159,19 66,6 103,6 588,0 1016,-450 425,-444 425,-1069 Q 3597,869 3122,394 2650,-78 1988,-78 1331,-78 838,388 353,853 353,1491 q 0,572 472,1212 z m 375,-3510 q 0,385 -266,650 -269,269 -647,269 -381,0 -647,-266 -265,-265 -265,-643 0,-378 265,-644 266,-266 650,-266 375,0 641,266 269,269 269,634 z"
                   transform="scale(0.015625)" />
              </defs>
              <use
                 xlink:href="#Futura-Medium-36"
                 id="use80" />
            </g>
          </g>
        </g>
        <g
           id="xtick_7">
          <g
             id="line2d_7">
            <path
               d="M 669.49224,512.64 V 69.12"
               clip-path="url(#pa228791ba9)"
               style="fill:none;stroke:#ffffff;stroke-width:0.8;stroke-linecap:square"
               id="path86" />
          </g>
          <g
             id="text_7">
            <!-- 7 -->
            <g
               style="fill:#444444"
               transform="matrix(0.2,0,0,-0.2,663.32036,536.13375)"
               id="g94">
              <defs
                 id="defs90">
                <path
                   id="Futura-Medium-37"
                   d="M 2713,4144 H 331 v 681 H 3928 L 884,-166 306,200 Z"
                   transform="scale(0.015625)" />
              </defs>
              <use
                 xlink:href="#Futura-Medium-37"
                 id="use92" />
            </g>
          </g>
        </g>
        <g
           id="xtick_8">
          <g
             id="line2d_8">
            <path
               d="M 746.8204,512.64 V 69.12"
               clip-path="url(#pa228791ba9)"
               style="fill:none;stroke:#ffffff;stroke-width:0.8;stroke-linecap:square"
               id="path98" />
          </g>
          <g
             id="text_8">
            <!-- 8 -->
            <g
               style="fill:#444444"
               transform="matrix(0.2,0,0,-0.2,740.64852,536.13375)"
               id="g106">
              <defs
                 id="defs102">
                <path
                   id="Futura-Medium-38"
                   d="m 1113,2509 q -532,375 -532,1022 0,588 403,982 407,393 1010,393 600,0 1000,-393 400,-391 400,-985 0,-622 -528,-1015 290,-157 456,-457 169,-300 169,-675 Q 3491,741 3072,331 2653,-78 2000,-78 1331,-78 897,334 459,747 459,1372 q 0,812 654,1137 z m 153,1025 q 0,-309 209,-518 213,-213 513,-213 296,0 508,212 213,213 213,510 0,297 -213,509 -212,213 -508,213 -297,0 -510,-213 -212,-212 -212,-500 z m -91,-2137 q 0,-334 231,-575 235,-238 569,-238 331,0 566,235 234,237 234,569 0,334 -235,568 -234,235 -565,235 -328,0 -566,-235 -234,-234 -234,-559 z"
                   transform="scale(0.015625)" />
              </defs>
              <use
                 xlink:href="#Futura-Medium-38"
                 id="use104" />
            </g>
          </g>
        </g>
        <g
           id="xtick_9">
          <g
             id="line2d_9">
            <path
               d="M 824.14856,512.64 V 69.12"
               clip-path="url(#pa228791ba9)"
               style="fill:none;stroke:#ffffff;stroke-width:0.8;stroke-linecap:square"
               id="path110" />
          </g>
          <g
             id="text_9">
            <!-- 9 -->
            <g
               style="fill:#444444"
               transform="matrix(0.2,0,0,-0.2,817.97668,536.13375)"
               id="g118">
              <defs
                 id="defs114">
                <path
                   id="Futura-Medium-39"
                   d="M 1438,-166 903,231 2056,1803 q -93,-12 -159,-19 -66,-6 -106,-6 -585,0 -1013,447 -425,444 -425,1069 0,665 472,1137 475,475 1138,475 659,0 1146,-468 488,-466 488,-1100 0,-563 -475,-1216 z m -375,3513 q 0,-391 265,-656 269,-269 647,-269 378,0 644,266 269,268 269,646 0,379 -269,647 -266,266 -647,266 -375,0 -641,-266 -268,-268 -268,-634 z"
                   transform="scale(0.015625)" />
              </defs>
              <use
                 xlink:href="#Futura-Medium-39"
                 id="use116" />
            </g>
          </g>
        </g>
        <g
           id="xtick_10">
          <g
             id="line2d_10">
            <path
               d="M 901.47672,512.64 V 69.12"
               clip-path="url(#pa228791ba9)"
               style="fill:none;stroke:#ffffff;stroke-width:0.8;stroke-linecap:square"
               id="path122" />
          </g>
          <g
             id="text_10">
            <!-- ∞ -->
            <g
               style="fill:#444444"
               transform="matrix(0.2,0,0,-0.2,893.93766,536.13375)"
               id="g130">
              <defs
                 id="defs126">
                <path
                   id="Futura-Medium-221e"
                   d="m 2431,1988 q -509,-669 -1162,-669 -503,0 -822,319 -319,321 -319,831 0,494 322,815 322,322 819,322 637,0 1131,-665 481,665 1163,665 506,0 818,-322 319,-318 319,-825 0,-500 -319,-821 -312,-322 -809,-322 -663,0 -1141,672 z m 341,475 q 347,-532 700,-532 219,0 366,150 146,157 146,382 0,218 -150,375 -143,153 -365,153 -350,0 -697,-528 z m -716,0 q -340,528 -703,528 -219,0 -362,-153 -147,-157 -147,-375 0,-222 147,-379 150,-153 368,-153 354,0 697,532 z"
                   transform="scale(0.015625)" />
              </defs>
              <use
                 xlink:href="#Futura-Medium-221e"
                 id="use128" />
            </g>
          </g>
        </g>
        <g
           id="text_11">
          <!-- # of steps to goal -->
          <g
             style="fill:#444444"
             transform="matrix(0.22,0,0,-0.22,466.31984,579.74406)"
             id="g183">
            <defs
               id="defs145">
              <path
                 id="Futura-Medium-23"
                 d="m 3834,3469 v -550 h -759 l -112,-897 h 693 V 1472 H 2894 L 2709,-22 2159,50 2338,1472 H 1409 L 1222,-22 666,50 844,1484 H 131 v 538 h 791 l 112,897 H 313 v 550 h 790 l 172,1400 547,-72 -166,-1328 h 922 l 175,1400 547,-72 -166,-1328 z M 2509,2919 h -918 l -113,-897 h 925 z"
                 transform="scale(0.015625)" />
              <path
                 id="Futura-Medium-20"
                 transform="scale(0.015625)"
                 d="" />
              <path
                 id="Futura-Medium-6f"
                 d="m 300,1544 q 0,659 472,1121 472,463 1150,463 681,0 1156,-465 469,-466 469,-1144 Q 3547,834 3075,372 2600,-88 1909,-88 1225,-88 763,381 300,844 300,1544 Z m 719,-13 q 0,-456 244,-722 250,-268 659,-268 412,0 659,265 247,266 247,710 0,443 -247,709 -250,269 -659,269 -403,0 -653,-269 -250,-269 -250,-694 z"
                 transform="scale(0.015625)" />
              <path
                 id="Futura-Medium-66"
                 d="M 1172,2388 V 0 H 466 V 2388 H 216 v 656 h 250 v 1175 q 0,575 200,812 275,332 800,332 187,0 472,-110 v -719 l -72,38 q -228,116 -375,116 -188,0 -253,-135 -66,-131 -66,-506 V 3044 h 766 v -656 z"
                 transform="scale(0.015625)" />
              <path
                 id="Futura-Medium-73"
                 d="m 2213,2525 -582,-309 q -137,281 -340,281 -97,0 -166,-64 -69,-64 -69,-164 0,-175 407,-347 559,-241 752,-444 194,-203 194,-547 0,-440 -325,-737 Q 1769,-88 1322,-88 556,-88 238,659 l 600,279 q 125,-219 190,-279 128,-118 306,-118 357,0 357,325 0,187 -275,350 -107,53 -213,103 -106,50 -215,103 -307,150 -432,300 -159,191 -159,491 0,396 272,656 278,259 675,259 584,0 869,-603 z"
                 transform="scale(0.015625)" />
              <path
                 id="Futura-Medium-74"
                 d="M 1169,2388 V 0 H 466 V 2388 H 166 v 656 h 300 v 1115 h 703 V 3044 h 547 v -656 z"
                 transform="scale(0.015625)" />
              <path
                 id="Futura-Medium-65"
                 d="M 3216,1356 H 1034 q 29,-375 244,-597 216,-218 553,-218 263,0 435,125 168,125 384,462 L 3244,797 Q 3106,563 2953,395 2800,228 2625,120 2450,13 2247,-37 2044,-88 1806,-88 1125,-88 713,350 300,791 300,1519 q 0,722 400,1169 403,440 1069,440 672,0 1062,-428 388,-425 388,-1178 z m -722,575 q -147,563 -710,563 -128,0 -241,-39 -112,-39 -204,-113 -92,-73 -158,-176 -65,-103 -100,-235 z"
                 transform="scale(0.015625)" />
              <path
                 id="Futura-Medium-70"
                 d="M 1147,-1656 H 444 v 4700 h 703 v -331 q 416,415 944,415 628,0 1034,-462 413,-460 413,-1160 0,-684 -410,-1140 -406,-454 -1025,-454 -534,0 -956,429 z m 1672,3159 q 0,438 -238,713 -240,278 -606,278 -387,0 -628,-269 -241,-269 -241,-706 0,-428 241,-706 237,-272 625,-272 366,0 603,275 244,275 244,687 z"
                 transform="scale(0.015625)" />
              <path
                 id="Futura-Medium-67"
                 d="m 3388,72 q 0,-216 -15,-380 -14,-164 -39,-289 -75,-344 -293,-591 -413,-475 -1135,-475 -609,0 -1003,329 -406,337 -469,934 h 707 q 40,-225 134,-347 219,-284 638,-284 771,0 771,947 V 341 Q 2266,-88 1719,-88 1097,-88 700,363 300,819 300,1503 q 0,666 372,1131 400,494 1056,494 575,0 956,-428 v 344 h 704 z m -675,1444 q 0,443 -238,709 -241,272 -616,272 -400,0 -631,-297 -209,-266 -209,-687 0,-416 209,-682 228,-290 631,-290 404,0 638,293 216,266 216,682 z"
                 transform="scale(0.015625)" />
              <path
                 id="Futura-Medium-61"
                 d="m 2688,3044 h 706 V 0 H 2688 V 319 Q 2253,-88 1753,-88 1122,-88 709,369 300,834 300,1531 q 0,685 409,1141 410,456 1025,456 532,0 954,-437 z M 1019,1531 q 0,-437 234,-712 241,-278 606,-278 391,0 632,268 240,279 240,707 0,428 -240,706 -241,272 -625,272 -363,0 -607,-275 -240,-278 -240,-688 z"
                 transform="scale(0.015625)" />
              <path
                 id="Futura-Medium-6c"
                 d="M 1147,5278 V 0 H 444 v 5278 z"
                 transform="scale(0.015625)" />
            </defs>
            <use
               xlink:href="#Futura-Medium-23"
               id="use147" />
            <use
               xlink:href="#Futura-Medium-20"
               x="61.71875"
               id="use149" />
            <use
               xlink:href="#Futura-Medium-6f"
               x="92.578125"
               id="use151" />
            <use
               xlink:href="#Futura-Medium-66"
               x="152.68555"
               id="use153" />
            <use
               xlink:href="#Futura-Medium-20"
               x="182.37305"
               id="use155" />
            <use
               xlink:href="#Futura-Medium-73"
               x="213.23242"
               id="use157" />
            <use
               xlink:href="#Futura-Medium-74"
               x="253.80859"
               id="use159" />
            <use
               xlink:href="#Futura-Medium-65"
               x="282.02734"
               id="use161" />
            <use
               xlink:href="#Futura-Medium-70"
               x="337.34961"
               id="use163" />
            <use
               xlink:href="#Futura-Medium-73"
               x="397.31055"
               id="use165" />
            <use
               xlink:href="#Futura-Medium-20"
               x="437.88672"
               id="use167" />
            <use
               xlink:href="#Futura-Medium-74"
               x="468.74609"
               id="use169" />
            <use
               xlink:href="#Futura-Medium-6f"
               x="496.71484"
               id="use171" />
            <use
               xlink:href="#Futura-Medium-20"
               x="556.82227"
               id="use173" />
            <use
               xlink:href="#Futura-Medium-67"
               x="587.68164"
               id="use175" />
            <use
               xlink:href="#Futura-Medium-6f"
               x="647.54492"
               id="use177" />
            <use
               xlink:href="#Futura-Medium-61"
               x="707.65234"
               id="use179" />
            <use
               xlink:href="#Futura-Medium-6c"
               x="767.61328"
               id="use181" />
          </g>
        </g>
      </g>
      <g
         id="matplotlib.axis_2">
        <g
           id="ytick_1">
          <g
             id="line2d_11">
            <path
               d="M 135,512.64 H 972"
               clip-path="url(#pa228791ba9)"
               style="fill:none;stroke:#d3d3d3;stroke-width:0.8;stroke-linecap:square;stroke-opacity:0.4"
               id="path187" />
          </g>
          <g
             id="text_12">
            <!-- 0.0 -->
            <g
               style="fill:#444444"
               transform="matrix(0.2,0,0,-0.2,97.140625,520.88688)"
               id="g200">
              <defs
                 id="defs192">
                <path
                   id="Futura-Medium-30"
                   d="m 272,2444 q 0,1153 537,1840 482,622 1166,622 684,0 1166,-622 537,-687 537,-1871 Q 3678,1231 3141,544 2659,-78 1978,-78 1297,-78 809,544 272,1231 272,2444 Z m 716,-3 q 0,-803 278,-1335 278,-522 709,-522 428,0 709,522 282,519 282,1310 0,790 -282,1312 -281,519 -709,519 -425,0 -706,-519 Q 988,3213 988,2441 Z"
                   transform="scale(0.015625)" />
                <path
                   id="Futura-Medium-2e"
                   d="m 553,350 q 0,175 128,303 128,128 307,128 178,0 306,-128 Q 1422,525 1422,347 1422,166 1294,38 1169,-88 988,-88 803,-88 678,37 553,163 553,350 Z"
                   transform="scale(0.015625)" />
              </defs>
              <use
                 xlink:href="#Futura-Medium-30"
                 id="use194" />
              <use
                 xlink:href="#Futura-Medium-2e"
                 x="61.71875"
                 id="use196" />
              <use
                 xlink:href="#Futura-Medium-30"
                 x="92.578125"
                 id="use198" />
            </g>
          </g>
        </g>
        <g
           id="ytick_2">
          <g
             id="line2d_12">
            <path
               d="M 135,434.93581 H 972"
               clip-path="url(#pa228791ba9)"
               style="fill:none;stroke:#d3d3d3;stroke-width:0.8;stroke-linecap:square;stroke-opacity:0.4"
               id="path204" />
          </g>
          <g
             id="text_13">
            <!-- 0.1 -->
            <g
               style="fill:#444444"
               transform="matrix(0.2,0,0,-0.2,98.740625,443.18268)"
               id="g213">
              <use
                 xlink:href="#Futura-Medium-30"
                 id="use207" />
              <use
                 xlink:href="#Futura-Medium-2e"
                 x="61.71875"
                 id="use209" />
              <use
                 xlink:href="#Futura-Medium-31"
                 x="84.578125"
                 id="use211" />
            </g>
          </g>
        </g>
        <g
           id="ytick_3">
          <g
             id="line2d_13">
            <path
               d="M 135,357.23161 H 972"
               clip-path="url(#pa228791ba9)"
               style="fill:none;stroke:#d3d3d3;stroke-width:0.8;stroke-linecap:square;stroke-opacity:0.4"
               id="path217" />
          </g>
          <g
             id="text_14">
            <!-- 0.2 -->
            <g
               style="fill:#444444"
               transform="matrix(0.2,0,0,-0.2,97.140625,365.47849)"
               id="g226">
              <use
                 xlink:href="#Futura-Medium-30"
                 id="use220" />
              <use
                 xlink:href="#Futura-Medium-2e"
                 x="61.71875"
                 id="use222" />
              <use
                 xlink:href="#Futura-Medium-32"
                 x="92.578125"
                 id="use224" />
            </g>
          </g>
        </g>
        <g
           id="ytick_4">
          <g
             id="line2d_14">
            <path
               d="M 135,279.52742 H 972"
               clip-path="url(#pa228791ba9)"
               style="fill:none;stroke:#d3d3d3;stroke-width:0.8;stroke-linecap:square;stroke-opacity:0.4"
               id="path230" />
          </g>
          <g
             id="text_15">
            <!-- 0.3 -->
            <g
               style="fill:#444444"
               transform="matrix(0.2,0,0,-0.2,97.140625,287.77429)"
               id="g239">
              <use
                 xlink:href="#Futura-Medium-30"
                 id="use233" />
              <use
                 xlink:href="#Futura-Medium-2e"
                 x="61.71875"
                 id="use235" />
              <use
                 xlink:href="#Futura-Medium-33"
                 x="92.578125"
                 id="use237" />
            </g>
          </g>
        </g>
        <g
           id="ytick_5">
          <g
             id="line2d_15">
            <path
               d="M 135,201.82322 H 972"
               clip-path="url(#pa228791ba9)"
               style="fill:none;stroke:#d3d3d3;stroke-width:0.8;stroke-linecap:square;stroke-opacity:0.4"
               id="path243" />
          </g>
          <g
             id="text_16">
            <!-- 0.4 -->
            <g
               style="fill:#444444"
               transform="matrix(0.2,0,0,-0.2,97.140625,210.0701)"
               id="g252">
              <use
                 xlink:href="#Futura-Medium-30"
                 id="use246" />
              <use
                 xlink:href="#Futura-Medium-2e"
                 x="61.71875"
                 id="use248" />
              <use
                 xlink:href="#Futura-Medium-34"
                 x="92.578125"
                 id="use250" />
            </g>
          </g>
        </g>
        <g
           id="ytick_6">
          <g
             id="line2d_16">
            <path
               d="M 135,124.11903 H 972"
               clip-path="url(#pa228791ba9)"
               style="fill:none;stroke:#d3d3d3;stroke-width:0.8;stroke-linecap:square;stroke-opacity:0.4"
               id="path256" />
          </g>
          <g
             id="text_17">
            <!-- 0.5 -->
            <g
               style="fill:#444444"
               transform="matrix(0.2,0,0,-0.2,97.140625,132.3659)"
               id="g265">
              <use
                 xlink:href="#Futura-Medium-30"
                 id="use259" />
              <use
                 xlink:href="#Futura-Medium-2e"
                 x="61.71875"
                 id="use261" />
              <use
                 xlink:href="#Futura-Medium-35"
                 x="92.578125"
                 id="use263" />
            </g>
          </g>
        </g>
        <g
           id="text_18">
          <!-- proportion of paths -->
          <g
             style="fill:#444444"
             transform="matrix(0,-0.22,-0.22,0,71.448125,387.80203)"
             id="g313">
            <defs
               id="defs273">
              <path
                 id="Futura-Medium-72"
                 d="m 444,3044 h 703 v -272 q 194,203 344,278 153,78 362,78 278,0 581,-181 l -321,-644 q -200,144 -391,144 -575,0 -575,-869 V 0 H 444 Z"
                 transform="scale(0.015625)" />
              <path
                 id="Futura-Medium-69"
                 d="M 1147,3044 V 0 H 444 V 3044 Z M 338,4309 q 0,185 134,319 134,135 322,135 190,0 325,-135 134,-131 134,-322 0,-190 -134,-325 -131,-134 -322,-134 -191,0 -325,134 -134,135 -134,328 z"
                 transform="scale(0.015625)" />
              <path
                 id="Futura-Medium-6e"
                 d="m 444,3044 h 706 v -281 q 369,365 831,365 532,0 828,-334 257,-285 257,-928 V 0 h -707 v 1700 q 0,450 -125,622 -121,175 -443,175 -350,0 -497,-231 -144,-228 -144,-797 V 0 H 444 Z"
                 transform="scale(0.015625)" />
              <path
                 id="Futura-Medium-68"
                 d="m 444,5278 h 703 V 2791 q 375,337 828,337 516,0 825,-334 263,-291 263,-928 V 0 h -704 v 1800 q 0,366 -130,530 -129,164 -416,164 -369,0 -519,-228 -147,-232 -147,-794 V 0 H 444 Z"
                 transform="scale(0.015625)" />
            </defs>
            <use
               xlink:href="#Futura-Medium-70"
               id="use275" />
            <use
               xlink:href="#Futura-Medium-72"
               x="59.960938"
               id="use277" />
            <use
               xlink:href="#Futura-Medium-6f"
               x="96.488281"
               id="use279" />
            <use
               xlink:href="#Futura-Medium-70"
               x="156.5957"
               id="use281" />
            <use
               xlink:href="#Futura-Medium-6f"
               x="216.55664"
               id="use283" />
            <use
               xlink:href="#Futura-Medium-72"
               x="276.66406"
               id="use285" />
            <use
               xlink:href="#Futura-Medium-74"
               x="317.69141"
               id="use287" />
            <use
               xlink:href="#Futura-Medium-69"
               x="345.03516"
               id="use289" />
            <use
               xlink:href="#Futura-Medium-6f"
               x="369.9375"
               id="use291" />
            <use
               xlink:href="#Futura-Medium-6e"
               x="430.04492"
               id="use293" />
            <use
               xlink:href="#Futura-Medium-20"
               x="484.87891"
               id="use295" />
            <use
               xlink:href="#Futura-Medium-6f"
               x="515.73828"
               id="use297" />
            <use
               xlink:href="#Futura-Medium-66"
               x="575.8457"
               id="use299" />
            <use
               xlink:href="#Futura-Medium-20"
               x="605.5332"
               id="use301" />
            <use
               xlink:href="#Futura-Medium-70"
               x="636.39258"
               id="use303" />
            <use
               xlink:href="#Futura-Medium-61"
               x="696.35352"
               id="use305" />
            <use
               xlink:href="#Futura-Medium-74"
               x="756.31445"
               id="use307" />
            <use
               xlink:href="#Futura-Medium-68"
               x="785.6582"
               id="use309" />
            <use
               xlink:href="#Futura-Medium-73"
               x="840.49219"
               id="use311" />
          </g>
        </g>
      </g>
      <g
         id="patch_3">
        <path
           d="m 210.16297,512.64 h 27.83814 v -54.93687 h -27.83814 z"
           clip-path="url(#pa228791ba9)"
           style="fill:#d3d3d3"
           id="path317" />
      </g>
      <g
         id="patch_4">
        <path
           d="m 287.49113,512.64 h 27.83814 v -63.40662 h -27.83814 z"
           clip-path="url(#pa228791ba9)"
           style="fill:#d3d3d3"
           id="path320" />
      </g>
      <g
         id="patch_5">
        <path
           d="m 364.81929,512.64 h 27.83814 v -51.75099 h -27.83814 z"
           clip-path="url(#pa228791ba9)"
           style="fill:#d3d3d3"
           id="path323" />
      </g>
      <g
         id="patch_6">
        <path
           d="m 442.14745,512.64 h 27.83814 v -44.67991 h -27.83814 z"
           clip-path="url(#pa228791ba9)"
           style="fill:#d3d3d3"
           id="path326" />
      </g>
      <g
         id="patch_7">
        <path
           d="m 519.47561,512.64 h 27.83814 v -38.07505 h -27.83814 z"
           clip-path="url(#pa228791ba9)"
           style="fill:#d3d3d3"
           id="path329" />
      </g>
      <g
         id="patch_8">
        <path
           d="m 596.80377,512.64 h 27.83814 v -30.53775 h -27.83814 z"
           clip-path="url(#pa228791ba9)"
           style="fill:#d3d3d3"
           id="path332" />
      </g>
      <g
         id="patch_9">
        <path
           d="m 674.13193,512.64 h 27.83814 v -24.94305 h -27.83814 z"
           clip-path="url(#pa228791ba9)"
           style="fill:#d3d3d3"
           id="path335" />
      </g>
      <g
         id="patch_10">
        <path
           d="m 751.46009,512.64 h 27.83814 v -25.40927 h -27.83814 z"
           clip-path="url(#pa228791ba9)"
           style="fill:#d3d3d3"
           id="path338" />
      </g>
      <g
         id="patch_11">
        <path
           d="m 828.78825,512.64 h 27.83814 v -20.90243 h -27.83814 z"
           clip-path="url(#pa228791ba9)"
           style="fill:#d3d3d3"
           id="path341" />
      </g>
      <g
         id="patch_12">
        <path
           d="m 906.11641,512.64 h 27.83814 V 90.24 h -27.83814 z"
           clip-path="url(#pa228791ba9)"
           style="fill:#d3d3d3"
           id="path344" />
      </g>
      <g
         id="patch_13">
        <path
           d="m 173.04545,512.64 h 27.83814 v -98.15267 h -27.83814 z"
           clip-path="url(#pa228791ba9)"
           style="fill:#f2ad48"
           id="path347" />
      </g>
      <g
         id="patch_14">
        <path
           d="m 250.37361,512.64 h 27.83814 V 349.05222 h -27.83814 z"
           clip-path="url(#pa228791ba9)"
           style="fill:#f2ad48"
           id="path350" />
      </g>
      <g
         id="patch_15">
        <path
           d="m 327.70177,512.64 h 27.83814 V 328.60375 h -27.83814 z"
           clip-path="url(#pa228791ba9)"
           style="fill:#f2ad48"
           id="path353" />
      </g>
      <g
         id="patch_16">
        <path
           d="m 405.02993,512.64 h 27.83814 V 377.68008 h -27.83814 z"
           clip-path="url(#pa228791ba9)"
           style="fill:#f2ad48"
           id="path356" />
      </g>
      <g
         id="patch_17">
        <path
           d="m 482.35809,512.64 h 27.83814 V 406.30795 h -27.83814 z"
           clip-path="url(#pa228791ba9)"
           style="fill:#f2ad48"
           id="path359" />
      </g>
      <g
         id="patch_18">
        <path
           d="m 559.68625,512.64 h 27.83814 v -61.34542 h -27.83814 z"
           clip-path="url(#pa228791ba9)"
           style="fill:#f2ad48"
           id="path362" />
      </g>
      <g
         id="patch_19">
        <path
           d="m 637.01441,512.64 h 27.83814 v -16.35878 h -27.83814 z"
           clip-path="url(#pa228791ba9)"
           style="fill:#f2ad48"
           id="path365" />
      </g>
      <g
         id="patch_20">
        <path
           d="m 714.34257,512.64 h 27.83814 v 0 z"
           clip-path="url(#pa228791ba9)"
           style="fill:#f2ad48"
           id="path368" />
      </g>
      <g
         id="patch_21">
        <path
           d="m 791.67073,512.64 h 27.83814 v 0 z"
           clip-path="url(#pa228791ba9)"
           style="fill:#f2ad48"
           id="path371" />
      </g>
      <g
         id="patch_22">
        <path
           d="m 868.99889,512.64 h 27.83814 v -12.26908 h -27.83814 z"
           clip-path="url(#pa228791ba9)"
           style="fill:#f2ad48"
           id="path374" />
      </g>
      <g
         id="patch_23">
        <path
           d="M 135,512.64 V 69.12"
           style="fill:none;stroke:#ffffff;stroke-linecap:square;stroke-linejoin:miter"
           id="path377" />
      </g>
      <g
         id="patch_24">
        <path
           d="M 972,512.64 V 69.12"
           style="fill:none;stroke:#ffffff;stroke-linecap:square;stroke-linejoin:miter"
           id="path380" />
      </g>
      <g
         id="patch_25">
        <path
           d="M 135,512.64 H 972"
           style="fill:none;stroke:#ffffff;stroke-linecap:square;stroke-linejoin:miter"
           id="path383" />
      </g>
      <g
         id="patch_26">
        <path
           d="M 135,69.12 H 972"
           style="fill:none;stroke:#ffffff;stroke-linecap:square;stroke-linejoin:miter"
           id="path386" />
      </g>
      <g
         id="patch_27">
        <path
           d="m 191.60421,512.64 h 27.83814 v -94.06297 h -27.83814 z"
           clip-path="url(#pa228791ba9)"
           style="fill:#99a3fd"
           id="path389" />
      </g>
      <g
         id="patch_28">
        <path
           d="m 268.93237,512.64 h 27.83814 V 369.50069 h -27.83814 z"
           clip-path="url(#pa228791ba9)"
           style="fill:#99a3fd"
           id="path392" />
      </g>
      <g
         id="patch_29">
        <path
           d="m 346.26053,512.64 h 27.83814 V 349.05222 h -27.83814 z"
           clip-path="url(#pa228791ba9)"
           style="fill:#99a3fd"
           id="path395" />
      </g>
      <g
         id="patch_30">
        <path
           d="m 423.58869,512.64 h 27.83814 V 377.68008 h -27.83814 z"
           clip-path="url(#pa228791ba9)"
           style="fill:#99a3fd"
           id="path398" />
      </g>
      <g
         id="patch_31">
        <path
           d="m 500.91685,512.64 h 27.83814 V 398.12856 h -27.83814 z"
           clip-path="url(#pa228791ba9)"
           style="fill:#99a3fd"
           id="path401" />
      </g>
      <g
         id="patch_32">
        <path
           d="m 578.24501,512.64 h 27.83814 v -57.25572 h -27.83814 z"
           clip-path="url(#pa228791ba9)"
           style="fill:#99a3fd"
           id="path404" />
      </g>
      <g
         id="patch_33">
        <path
           d="m 655.57317,512.64 h 27.83814 v -24.53817 h -27.83814 z"
           clip-path="url(#pa228791ba9)"
           style="fill:#99a3fd"
           id="path407" />
      </g>
      <g
         id="patch_34">
        <path
           d="m 732.90133,512.64 h 27.83814 v -4.08969 h -27.83814 z"
           clip-path="url(#pa228791ba9)"
           style="fill:#99a3fd"
           id="path410" />
      </g>
      <g
         id="patch_35">
        <path
           d="m 810.22949,512.64 h 27.83814 v 0 z"
           clip-path="url(#pa228791ba9)"
           style="fill:#99a3fd"
           id="path413" />
      </g>
      <g
         id="patch_36">
        <path
           d="m 887.55765,512.64 h 27.83814 v -40.89694 h -27.83814 z"
           clip-path="url(#pa228791ba9)"
           style="fill:#99a3fd"
           id="path416" />
      </g>
      <g
         id="legend_1">
        <g
           id="patch_37">
          <path
             d="m 146.2,157.925 h 145.9325 q 3.2,0 3.2,-3.2 V 80.32 q 0,-3.2 -3.2,-3.2 H 146.2 q -3.2,0 -3.2,3.2 v 74.405 q 0,3.2 3.2,3.2 z"
             style="opacity:0.8;fill:#e5e5e5;stroke:#cccccc;stroke-width:0.5;stroke-linejoin:miter"
             id="path419" />
        </g>
        <g
           id="patch_38">
          <path
             d="m 149.4,96.715 h 32 v -11.2 h -32 z"
             style="fill:#f2ad48"
             id="path422" />
        </g>
        <g
           id="text_19">
          <!-- shortest path -->
          <g
             style="fill:#444444"
             transform="matrix(0.16,0,0,-0.16,194.2,96.715)"
             id="g451">
            <use
               xlink:href="#Futura-Medium-73"
               id="use425" />
            <use
               xlink:href="#Futura-Medium-68"
               x="40.576172"
               id="use427" />
            <use
               xlink:href="#Futura-Medium-6f"
               x="95.410156"
               id="use429" />
            <use
               xlink:href="#Futura-Medium-72"
               x="155.51758"
               id="use431" />
            <use
               xlink:href="#Futura-Medium-74"
               x="196.54492"
               id="use433" />
            <use
               xlink:href="#Futura-Medium-65"
               x="224.76367"
               id="use435" />
            <use
               xlink:href="#Futura-Medium-73"
               x="280.08594"
               id="use437" />
            <use
               xlink:href="#Futura-Medium-74"
               x="320.66211"
               id="use439" />
            <use
               xlink:href="#Futura-Medium-20"
               x="348.00586"
               id="use441" />
            <use
               xlink:href="#Futura-Medium-70"
               x="378.86523"
               id="use443" />
            <use
               xlink:href="#Futura-Medium-61"
               x="438.82617"
               id="use445" />
            <use
               xlink:href="#Futura-Medium-74"
               x="498.78711"
               id="use447" />
            <use
               xlink:href="#Futura-Medium-68"
               x="528.13086"
               id="use449" />
          </g>
        </g>
        <g
           id="patch_39">
          <path
             d="m 149.4,122.05 h 32 v -11.2 h -32 z"
             style="fill:#99a3fd"
             id="path454" />
        </g>
        <g
           id="text_20">
          <!-- ILQL -->
          <g
             style="fill:#444444"
             transform="matrix(0.16,0,0,-0.16,194.2,122.05)"
             id="g470">
            <defs
               id="defs460">
              <path
                 id="Futura-Medium-49"
                 d="M 1306,4825 V 0 H 578 v 4825 z"
                 transform="scale(0.015625)" />
              <path
                 id="Futura-Medium-4c"
                 d="M 1306,4825 V 684 H 2725 V 0 H 578 v 4825 z"
                 transform="scale(0.015625)" />
              <path
                 id="Futura-Medium-51"
                 d="M 5488,-88 H 4572 L 4194,300 Q 3591,-88 2850,-88 q -959,0 -1703,651 -809,715 -809,1828 0,1090 765,1818 744,707 1756,707 919,0 1647,-619 875,-744 875,-1941 0,-937 -690,-1665 z m -2004,1997 700,-696 q 463,481 463,1190 0,778 -516,1303 -515,525 -1281,525 -775,0 -1275,-525 -503,-522 -503,-1322 0,-781 519,-1278 540,-512 1234,-512 472,0 853,215 L 2544,1909 Z"
                 transform="scale(0.015625)" />
            </defs>
            <use
               xlink:href="#Futura-Medium-49"
               id="use462" />
            <use
               xlink:href="#Futura-Medium-4c"
               x="29.492188"
               id="use464" />
            <use
               xlink:href="#Futura-Medium-51"
               x="73.828125"
               id="use466" />
            <use
               xlink:href="#Futura-Medium-4c"
               x="163.18359"
               id="use468" />
          </g>
        </g>
        <g
           id="patch_40">
          <path
             d="m 149.4,147.385 h 32 v -11.2 h -32 z"
             style="fill:#d3d3d3"
             id="path473" />
        </g>
        <g
           id="text_21">
          <!-- random walk -->
          <g
             style="fill:#444444"
             transform="matrix(0.16,0,0,-0.16,194.2,147.385)"
             id="g504">
            <defs
               id="defs480">
              <path
                 id="Futura-Medium-64"
                 d="m 2688,5278 h 706 V 0 H 2688 V 319 Q 2272,-88 1747,-88 1122,-88 709,369 300,834 300,1531 q 0,682 409,1138 407,459 1022,459 535,0 957,-437 z M 1019,1531 q 0,-437 234,-712 241,-278 606,-278 391,0 632,268 240,279 240,707 0,428 -240,706 -241,272 -625,272 -363,0 -607,-275 -240,-278 -240,-688 z"
                 transform="scale(0.015625)" />
              <path
                 id="Futura-Medium-6d"
                 d="m 444,3044 h 703 v -281 q 203,212 347,287 153,78 384,78 516,0 816,-450 331,450 897,450 1028,0 1028,-1247 V 0 h -706 v 1691 q 0,437 -107,618 -109,185 -359,185 -291,0 -424,-219 -132,-219 -132,-703 V 0 h -707 v 1681 q 0,813 -468,813 -297,0 -433,-222 -136,-222 -136,-700 V 0 H 444 Z"
                 transform="scale(0.015625)" />
              <path
                 id="Futura-Medium-77"
                 d="m 825,3044 797,-1738 859,2016 866,-2016 787,1738 h 788 L 3328,-228 2481,1731 1625,-228 34,3044 Z"
                 transform="scale(0.015625)" />
              <path
                 id="Futura-Medium-6b"
                 d="M 1147,5278 V 2059 l 991,985 h 943 L 1759,1766 3178,0 H 2266 L 1259,1284 1147,1172 V 0 H 444 v 5278 z"
                 transform="scale(0.015625)" />
            </defs>
            <use
               xlink:href="#Futura-Medium-72"
               id="use482" />
            <use
               xlink:href="#Futura-Medium-61"
               x="36.777344"
               id="use484" />
            <use
               xlink:href="#Futura-Medium-6e"
               x="96.738281"
               id="use486" />
            <use
               xlink:href="#Futura-Medium-64"
               x="151.57227"
               id="use488" />
            <use
               xlink:href="#Futura-Medium-6f"
               x="211.5332"
               id="use490" />
            <use
               xlink:href="#Futura-Medium-6d"
               x="271.64062"
               id="use492" />
            <use
               xlink:href="#Futura-Medium-20"
               x="350.74219"
               id="use494" />
            <use
               xlink:href="#Futura-Medium-77"
               x="381.60156"
               id="use496" />
            <use
               xlink:href="#Futura-Medium-61"
               x="457.36914"
               id="use498" />
            <use
               xlink:href="#Futura-Medium-6c"
               x="517.33008"
               id="use500" />
            <use
               xlink:href="#Futura-Medium-6b"
               x="542.23242"
               id="use502" />
          </g>
        </g>
      </g>
    </g>
  </g>
  <defs
     id="defs513">
    <clipPath
       id="pa228791ba9">
      <rect
         x="135"
         y="69.120003"
         width="837"
         height="443.51999"
         id="rect510" />
    </clipPath>
  </defs>
</svg>
